ffmpeg version 3.4.2 Copyright (c) 2000-2018 the FFmpeg developers
  built with Apple LLVM version 9.0.0 (clang-900.0.39.2)
  configuration: --prefix=/usr/local/Cellar/ffmpeg/3.4.2 --enable-shared --enable-pthreads --enable-version3 --enable-hardcoded-tables --enable-avresample --cc=clang --host-cflags= --host-ldflags= --disable-jack --enable-gpl --enable-libmp3lame --enable-libx264 --enable-libxvid --enable-opencl --enable-videotoolbox --disable-lzma
  libavutil      55. 78.100 / 55. 78.100
  libavcodec     57.107.100 / 57.107.100
  libavformat    57. 83.100 / 57. 83.100
  libavdevice    57. 10.100 / 57. 10.100
  libavfilter     6.107.100 /  6.107.100
  libavresample   3.  7.  0 /  3.  7.  0
  libswscale      4.  8.100 /  4.  8.100
  libswresample   2.  9.100 /  2.  9.100
  libpostproc    54.  7.100 / 54.  7.100
Input #0, rawvideo, from 'pipe:':
  Duration: N/A, start: 0.000000, bitrate: 373248 kb/s
    Stream #0:0: Video: rawvideo (RGB[24] / 0x18424752), rgb24, 960x540, 373248 kb/s, 30 tbr, 30 tbn, 30 tbc
Stream mapping:
  Stream #0:0 -> #0:0 (rawvideo (native) -> h264 (libx264))
[libx264 @ 0x7ff02c800600] using cpu capabilities: MMX2 SSE2Fast SSSE3 SSE4.2 AVX FMA3 BMI2 AVX2
[libx264 @ 0x7ff02c800600] profile High, level 3.1
[libx264 @ 0x7ff02c800600] 264 - core 152 r2854 e9a5903 - H.264/MPEG-4 AVC codec - Copyleft 2003-2017 - http://www.videolan.org/x264.html - options: cabac=1 ref=3 deblock=1:0:0 analyse=0x3:0x113 me=hex subme=7 psy=1 psy_rd=1.00:0.00 mixed_ref=1 me_range=16 chroma_me=1 trellis=1 8x8dct=1 cqm=0 deadzone=21,11 fast_pskip=1 chroma_qp_offset=-2 threads=6 lookahead_threads=1 sliced_threads=0 nr=0 decimate=1 interlaced=0 bluray_compat=0 constrained_intra=0 bframes=3 b_pyramid=2 b_adapt=1 b_bias=0 direct=1 weightb=1 open_gop=0 weightp=2 keyint=250 keyint_min=25 scenecut=40 intra_refresh=0 rc_lookahead=40 rc=crf mbtree=1 crf=15.0 qcomp=0.60 qpmin=0 qpmax=69 qpstep=4 ip_ratio=1.40 aq=1:1.00
Output #0, mp4, to '/Users/TeZ/Documents/MoW/PROCESSING/test_record_openCV/camera.mp4':
  Metadata:
    comment         : Made with Video Export for Processing - https://git.io/vAXLk
    encoder         : Lavf57.83.100
    Stream #0:0: Video: h264 (libx264) (avc1 / 0x31637661), yuv420p, 960x540, q=-1--1, 30 fps, 15360 tbn, 30 tbc
    Metadata:
      encoder         : Lavc57.107.100 libx264
    Side data:
      cpb: bitrate max/min/avg: 0/0/0 buffer size: 0 vbv_delay: -1
frame=   10 fps=0.0 q=0.0 size=       0kB time=00:00:00.00 bitrate=N/A speed=   0x    frame=   22 fps= 21 q=0.0 size=       0kB time=00:00:00.00 bitrate=N/A speed=   0x    frame=   36 fps= 22 q=0.0 size=       0kB time=00:00:00.00 bitrate=N/A speed=   0x    frame=   47 fps= 22 q=0.0 size=       0kB time=00:00:00.00 bitrate=N/A speed=   0x    frame=   56 fps= 21 q=21.0 size=     256kB time=00:00:00.10 bitrate=20961.7kbits/s speed=0.0369x    frame=   66 fps= 20 q=21.0 size=     768kB time=00:00:00.43 bitrate=14517.5kbits/s speed=0.134x    frame=   75 fps= 20 q=21.0 size=    1280kB time=00:00:00.73 bitrate=14298.0kbits/s speed=0.194x    frame=   85 fps= 20 q=21.0 size=    1792kB time=00:00:01.06 bitrate=13762.1kbits/s speed=0.248x    frame=   96 fps= 20 q=21.0 size=    2304kB time=00:00:01.43 bitrate=13167.8kbits/s speed=0.297x    frame=  103 fps= 19 q=21.0 size=    2816kB time=00:00:01.66 bitrate=13840.9kbits/s speed=0.309x    frame=  109 fps= 18 q=21.0 size=    3072kB time=00:00:01.86 bitrate=13481.4kbits/s speed=0.314x    frame=  116 fps= 18 q=21.0 size=    3328kB time=00:00:02.10 bitrate=12982.2kbits/s speed=0.325x    frame=  123 fps= 17 q=21.0 size=    3840kB time=00:00:02.33 bitrate=13481.5kbits/s speed=0.33x    frame=  130 fps= 16 q=21.0 size=    4352kB time=00:00:02.56 bitrate=13890.0kbits/s speed=0.307x    frame=  130 fps= 13 q=-1.0 Lsize=    6585kB time=00:00:04.23 bitrate=12742.4kbits/s speed=0.429x    
video:6582kB audio:0kB subtitle:0kB other streams:0kB global headers:0kB muxing overhead: 0.037505%
[libx264 @ 0x7ff02c800600] frame I:6     Avg QP:12.58  size:124424
[libx264 @ 0x7ff02c800600] frame P:48    Avg QP:16.82  size: 40691
[libx264 @ 0x7ff02c800600] frame B:76    Avg QP:18.49  size: 53158
[libx264 @ 0x7ff02c800600] consecutive B-frames:  6.2% 43.1% 13.8% 36.9%
[libx264 @ 0x7ff02c800600] mb I  I16..4: 22.1% 57.0% 20.9%
[libx264 @ 0x7ff02c800600] mb P  I16..4:  0.7% 26.9%  4.8%  P16..4:  3.3%  4.0%  2.5%  0.0%  0.0%    skip:57.9%
[libx264 @ 0x7ff02c800600] mb B  I16..4:  0.7% 35.9%  5.0%  B16..8: 13.4%  9.5%  3.3%  direct: 9.4%  skip:22.8%  L0:31.2% L1:51.6% BI:17.2%
[libx264 @ 0x7ff02c800600] 8x8 transform intra:82.0% inter:48.1%
[libx264 @ 0x7ff02c800600] coded y,uvDC,uvAC intra: 97.9% 98.1% 98.1% inter: 37.3% 40.4% 37.2%
[libx264 @ 0x7ff02c800600] i16 v,h,dc,p: 45%  1% 18% 37%
[libx264 @ 0x7ff02c800600] i8 v,h,dc,ddl,ddr,vr,hd,vl,hu:  8%  9% 31%  8%  9%  8%  8%  8% 10%
[libx264 @ 0x7ff02c800600] i4 v,h,dc,ddl,ddr,vr,hd,vl,hu: 12%  9% 17% 11% 12% 10% 10%  9% 10%
[libx264 @ 0x7ff02c800600] i8c dc,h,v,p: 73%  9%  7% 10%
[libx264 @ 0x7ff02c800600] Weighted P-Frames: Y:2.1% UV:2.1%
[libx264 @ 0x7ff02c800600] ref P L0: 63.0% 17.5%  9.5% 10.0%
[libx264 @ 0x7ff02c800600] ref B L0: 80.1% 19.5%  0.4%
[libx264 @ 0x7ff02c800600] ref B L1: 94.3%  5.7%
[libx264 @ 0x7ff02c800600] kb/s:12442.62
